<svg xmlns="http://www.w3.org/2000/svg" xml:space="preserve" viewBox="0 0 1029 160">
  <path d="M179 107V56c0-31-25-56-56-56H56C25 0 0 25 0 56v104h51v-24s11-3 22-3c10 0 21 3 21 3v24h48v-56s1-2 3-2c3 0 4 2 4 2v3c0 26 21 47 47 47v-30c-9 0-17-8-17-17zm-34-35c-4 0-4-6 0-6 5 0 5 6 0 6z" vector-effect="non-scaling-stroke"/>
  <path fill="#eeeeff" d="M260 122h-45v-14l11-2V39l-11-3V22h49q12 0 21 4 9 5 13 12 5 7 5 17t-5 18q-4 7-13 11t-21 4h-14v18l10 2zm-10-81v29h14q7 0 11-4t4-10q0-7-4-11t-11-4zm103 81h-45v-14l10-2V39l-10-3V22h45v14l-11 3v25h37V39l-11-3V22h45v14l-10 3v67l10 2v14h-45v-14l11-2V82h-37v24l11 2zm111 0h-45v-14l10-2V39l-10-3V22h48q12 0 21 4 9 5 14 12t5 17q0 10-5 18-5 7-14 11t-21 4h-14v18l11 2zm-11-81v29h14q8 0 12-4 3-4 3-10 0-7-3-11-4-4-12-4zm102 83q-12 0-22-3-9-2-19-8V87h19l2 13 8 4q5 2 12 2l8-1q3-1 4-4 2-2 2-5t-2-5q-1-3-4-5l-10-4-21-8q-8-5-12-10-4-6-4-15 0-8 5-15 5-6 13-9 8-4 19-4 12 0 22 2 9 3 16 9v24h-18l-2-14-7-2-9-1-8 1q-3 1-5 4-2 2-2 5t2 5l5 4 11 5q18 5 26 12 9 8 9 21 0 9-5 15-4 6-13 10-9 3-20 3zm81 0q-11 0-19-5t-13-13q-4-9-4-20v-2q0-11 4-19 5-9 13-14 8-4 18-4 11 0 19 3l12 7-1 23h-18l-3-13q-1-2-3-2l-3-1q-5 0-8 2t-5 7l-1 11v2q0 7 2 12l4 6 6 1q4 0 7-2l3-6h21l-5 15q-4 6-10 9t-16 3zm64 0q-11 0-18-6t-7-17q0-7 4-12t11-8q8-3 19-3h8v-5q0-4-3-7-2-4-8-4l-4 1-4 2-1 9h-17l-1-21 13-4q7-2 16-2 15 0 24 7 9 6 9 19v34l8 1v14h-28l-2-3-1-4-8 6q-4 3-10 3zm7-17 5-1q3-1 5-4V92h-8q-5 0-7 2-3 2-3 6 0 3 2 5l6 2zm88 15h-42v-14l9-2V31l-11-2V15h35v91l9 2zm45 0h-41v-14l8-2V64l-10-2V48h35v58l8 2zm-8-88h-25V15h25zm51 88h-39v-14l9-2V64l-11-2V48h34v10q4-5 10-8 5-3 12-3 10 0 16 7t6 22v30l9 2v14h-40v-14l7-2V76q0-6-2-8-3-3-7-3l-6 1-4 4v36l6 2zm83 30-14-1q-7-1-13-4l4-17 11 3 10 2q8 0 11-5 4-4 4-11v-3l-8 6q-4 2-9 2-9 0-16-5-6-4-9-13-4-8-4-19v-2q0-11 4-20 3-9 9-14 6-4 15-4 7 0 11 2 5 3 8 8l2-9h21v71q0 10-5 18-4 7-13 11-8 4-19 4zm3-47 6-1 4-3V70l-4-4-6-1q-4 0-7 3l-4 7-1 10v2q0 9 3 13 2 5 9 5zm42-43-11 3-11-17h22z" vector-effect="non-scaling-stroke"/>
</svg>
